<svg width="80" height="80" viewBox="0 0 80 80" fill="none" xmlns="http://www.w3.org/2000/svg">
  <circle cx="40" cy="40" r="40" fill="url(#paint0_radial)"/>
  <path d="M55.03 27.77c.73 1.85.73 3.62 0 5.47-1.1 2.76-3.67 5.15-7.33 6.9-4.77 2.3-10.82 3.16-17.24 2.47a32.9 32.9 0 0 1-11-3.42A19.28 19.28 0 0 1 12.39 34a7.34 7.34 0 0 1-1.1-5.46 7.34 7.34 0 0 1 3.3-4.37c2.38-1.5 5.7-2.2 9.72-2.2 3.66 0 7.88.55 12.28 1.65a52.38 52.38 0 0 1 12.1 4.14c2.75 1.3 5.05 2.76 6.34 4.01z" fill="#9333EA"/>
  <path d="M53.21 49.35c.43.98.42 1.93 0 2.9-.63 1.47-2.11 2.74-4.22 3.66-2.75 1.22-6.24 1.68-9.94 1.31a23.8 23.8 0 0 1-6.34-1.81A13.32 13.32 0 0 1 27.34 52c-.91-.9-1.5-1.9-1.76-2.9a3.78 3.78 0 0 1 .63-2.91c.63-.98 1.76-1.81 3.38-2.32 1.9-.58 4.15-.83 6.6-.83 2.1 0 4.36.18 6.6.67 2.25.49 4.37 1.14 6.2 2.05 1.76.74 3.1 1.65 4.22 2.55l-.01.04z" fill="#BE86F9"/>
  <path d="M40.11 20C51.48 20 60 29.47 60 40s-8.38 20-19.75 20c-5.55 0-10.5-2.3-14.14-5.9-.83-.82-1.18-1.64-1.11-2.4.07-.77.62-1.52 1.6-2.04 1.38-.75 3.28-1.04 5.13-.77 1.15.18 2.15.54 2.77.95.07.05.14.1.2.17 1.53 1.23 3.43 1.85 5.62 1.85 4.98 0 8.87-5.13 8.87-11.81 0-6.68-3.96-11.8-8.87-11.8-2.36 0-4.43.95-6.02 2.66-.48.55-1.18.95-2.02 1.09-1.38.27-3 .07-4.3-.6-.7-.36-1.2-.84-1.45-1.4-.21-.55-.14-1.15.28-1.72C20.88 23.34 30 20 40.11 20z" fill="url(#paint1_linear)"/>
  <defs>
    <radialGradient id="paint0_radial" cx="0" cy="0" r="1" gradientUnits="userSpaceOnUse" gradientTransform="rotate(45 11.72 32.67) scale(83.1283)">
      <stop offset=".15" stop-color="#570EB3"/>
      <stop offset=".6" stop-color="#120321"/>
      <stop offset="1" stop-color="#000"/>
    </radialGradient>
    <linearGradient id="paint1_linear" x1="29.5" y1="20" x2="52.5" y2="60" gradientUnits="userSpaceOnUse">
      <stop stop-color="#BE85F9"/>
      <stop offset="1" stop-color="#7E22CE"/>
    </linearGradient>
  </defs>
</svg>



